<?xml version="1.0" encoding="utf-8"?>
<svg width="27" height="27" viewBox="0 0 27 27" fill="none" xmlns="http://www.w3.org/2000/svg">
  <g>
    <g fill="#000000" fill-rule="evenodd" transform="translate(2 10)">
      <path d="M0 3L4 6L4 3.75L18 3.75L18 6L22 3L18 0L18 2.25L4 2.25L4 0L0 3L0 3Z" />
      <path d="M5.66667 -1L-1 4L0.0666667 4.8L5.66667 9L5.66667 5.75L17.6667 5.75L17.6667 9L24.3333 4L17.6667 -1L17.6667 2.25L5.66667 2.25L5.66667 -1ZM5.66667 3.25L4.66667 3.25L4.66667 1L3.66667 1.75L1.5 3.375L0.666667 4L1.5 4.625L3.66667 6.25L4.66667 7L4.66667 4.75L18.6667 4.75L18.6667 7L19.6667 6.25L21.8333 4.625L22.6667 4L21.8333 3.375L19.6667 1.75L18.6667 1L18.6667 3.25L5.66667 3.25Z" fill="#FFFFFF" fill-rule="evenodd" />
    </g>
  </g>
</svg>